<?xml version="1.0" encoding="UTF-8" standalone="no"?>
<svg
   width="44"
   height="44"
   viewBox="0 0 44 44"
   fill="none"
   version="1.1"
   id="svg12"
   sodipodi:docname="loupe-blue.svg"
   inkscape:version="1.2.1 (9c6d41e410, 2022-07-14)"
   xmlns:inkscape="http://www.inkscape.org/namespaces/inkscape"
   xmlns:sodipodi="http://sodipodi.sourceforge.net/DTD/sodipodi-0.dtd"
   xmlns="http://www.w3.org/2000/svg"
   xmlns:svg="http://www.w3.org/2000/svg">
  <defs
     id="defs16" />
  <sodipodi:namedview
     id="namedview14"
     pagecolor="#505050"
     bordercolor="#eeeeee"
     borderopacity="1"
     inkscape:showpageshadow="0"
     inkscape:pageopacity="0"
     inkscape:pagecheckerboard="0"
     inkscape:deskcolor="#505050"
     showgrid="false"
     inkscape:zoom="18.840909"
     inkscape:cx="21.973462"
     inkscape:cy="22.026538"
     inkscape:window-width="1920"
     inkscape:window-height="1009"
     inkscape:window-x="-8"
     inkscape:window-y="-8"
     inkscape:window-maximized="1"
     inkscape:current-layer="svg12" />
  <path
     d="M42 42L30.913 31.5322M35.8653 19.3048C35.8653 23.8943 34.0813 28.2959 30.9058 31.5411C27.7304 34.7864 23.4235 36.6096 18.9327 36.6096C14.4418 36.6096 10.1349 34.7864 6.95946 31.5411C3.78397 28.2959 2 23.8943 2 19.3048C2 14.7153 3.78397 10.3137 6.95946 7.06846C10.1349 3.82318 14.4418 2 18.9327 2C23.4235 2 27.7304 3.82318 30.9058 7.06846C34.0813 10.3137 35.8653 14.7153 35.8653 19.3048Z"
     stroke="#447CE2"
     stroke-width="4"
     stroke-linecap="round"
     id="path10" />
  <path
     style="fill:#ececec;stroke:#000000;stroke-width:0"
     d="m 41.66723,43.936141 c -0.159139,-0.02447 -0.427462,-0.121626 -0.596272,-0.215892 -0.221452,-0.123664 -1.566288,-1.361254 -4.829119,-4.444013 -2.487206,-2.349939 -4.707035,-4.446588 -4.932954,-4.659218 l -0.410761,-0.386602 -0.52125,0.407459 c -2.724525,2.129753 -6.025908,3.461902 -9.544546,3.851343 -0.807247,0.08935 -3.04854,0.08865 -3.821472,-0.0012 C 13.350652,38.062627 10.039015,36.688641 7.1917973,34.414145 6.4072126,33.78738 4.9742403,32.345041 4.3114134,31.514932 1.9534246,28.561843 0.53561932,25.097499 0.13157948,21.301695 0.03293033,20.374923 0.01882759,18.397234 0.10476668,17.541616 0.5728455,12.881379 2.509475,8.732551 5.7039891,5.5464415 8.8284307,2.4302207 12.822447,0.53984078 17.196622,0.10694348 c 0.888643,-0.08794598 2.80296,-0.07426847 3.71532,0.0265454 7.910372,0.87407962 14.40562,6.62541962 16.3483,14.47591112 1.101476,4.451134 0.601055,9.165183 -1.409958,13.282035 -0.579892,1.187128 -1.220103,2.22003 -2.075732,3.348941 l -0.124589,0.16438 4.953693,4.675751 c 4.311488,4.06958 4.974628,4.715712 5.115179,4.983991 0.200458,0.382627 0.235722,0.529131 0.234318,0.973459 -0.0038,1.201312 -1.068491,2.085413 -2.285923,1.898184 z M 20.434258,34.546043 c 5.021241,-0.485102 9.503421,-3.63086 11.826062,-8.299963 1.086828,-2.184804 1.60292,-4.411231 1.605562,-6.926418 0.0019,-1.822687 -0.211376,-3.205374 -0.749705,-4.860066 C 31.445945,9.3257156 27.267666,5.4758791 22.124677,4.3321053 20.959005,4.0728662 20.343487,4.0103788 18.94813,4.0096222 17.593421,4.0088877 17.131345,4.0506242 16.017468,4.2743311 10.332488,5.41608 5.7868975,9.8814897 4.4038311,15.683113 c -0.4711317,1.976281 -0.5457337,4.229436 -0.206336,6.231832 0.9999793,5.899729 5.2184677,10.631839 10.8686599,12.19197 1.723804,0.475978 3.490635,0.62051 5.368103,0.439128 z"
     id="path1648" />
</svg>
